<svg height="2500" viewBox="-.00170239 -.00414004 135.46870239 148.44914004" width="2281" xmlns="http://www.w3.org/2000/svg"><path d="m63.249 70.894-62.67 65.216.009.04c1.923 7.08 8.518 12.295 16.349 12.295 3.128 0 6.067-.83 8.588-2.285l.2-.118 70.533-39.915z" fill="#ea4335"/><path d="m126.65 59.788-.06-.039-30.454-17.312-34.31 29.937 34.431 33.753 30.294-17.138c5.31-2.813 8.916-8.301 8.916-14.63 0-6.29-3.556-11.748-8.817-14.57z" fill="#fbbc04"/><path d="m.574 12.331a16.036 16.036 0 0 0 -.574 4.271v115.241c.061 1.654.197 2.912.578 4.267l64.826-63.546z" fill="#4285f4"/><path d="m63.71 74.223 32.426-31.786-70.452-40.064a17.222 17.222 0 0 0 -8.747-2.373c-7.83 0-14.437 5.225-16.358 12.315l-.005.017z" fill="#34a853"/></svg>